<?xml version="1.0" standalone="no"?>
<!DOCTYPE svg PUBLIC "-//W3C//DTD SVG 20010904//EN"
 "http://www.w3.org/TR/2001/REC-SVG-20010904/DTD/svg10.dtd">
<svg version="1.0" xmlns="http://www.w3.org/2000/svg"
 width="500.000000pt" height="500.000000pt" viewBox="0 0 500.000000 500.000000"
 preserveAspectRatio="xMidYMid meet">

<g transform="translate(0.000000,500.000000) scale(0.100000,-0.100000)"
fill="#000000" stroke="none">
<path d="M0 2500 l0 -2500 2500 0 2500 0 0 2500 0 2500 -2500 0 -2500 0 0
-2500z m2024 1239 c192 -25 397 -111 483 -202 49 -51 83 -125 83 -178 0 -53
-78 -85 -123 -49 -50 39 -32 113 33 135 l32 11 -47 52 c-114 127 -440 223
-705 209 -255 -14 -445 -93 -605 -252 -233 -231 -287 -595 -143 -957 16 -43
33 -78 37 -78 3 0 74 166 156 370 l150 370 66 0 65 0 62 -157 c33 -87 151
-394 262 -683 271 -709 299 -777 328 -811 25 -30 62 -54 117 -76 24 -9 -31
-12 -275 -12 -265 0 -301 2 -274 13 38 17 64 52 64 87 0 22 -23 45 -122 130
-323 271 -547 541 -654 789 -64 148 -86 241 -91 401 -6 162 7 254 54 381 73
195 255 374 464 452 186 70 350 85 583 55z m709 -733 c18 -7 46 -28 62 -45 26
-28 30 -40 30 -89 0 -43 -6 -65 -22 -88 -85 -120 -288 -59 -288 86 0 106 118
179 218 136z m107 -918 c0 -537 1 -554 20 -586 12 -19 38 -41 63 -52 l42 -20
-275 0 -275 0 39 23 c22 12 49 35 60 50 21 28 21 39 24 505 2 326 0 489 -8
514 -13 45 -41 74 -95 98 l-40 19 223 0 222 1 0 -552z m470 321 l0 -41 -31 26
c-25 21 -41 26 -85 26 l-54 0 0 -65 0 -65 46 0 c25 0 54 5 65 10 17 10 19 7
19 -25 0 -32 -2 -35 -19 -25 -11 5 -40 10 -65 10 l-46 0 0 -70 0 -70 64 0 c49
0 69 5 90 21 l26 20 0 -35 0 -36 -132 0 c-103 0 -129 3 -120 12 8 8 12 60 12
170 0 139 -2 158 -17 167 -13 7 20 10 115 11 l132 0 0 -41z m1130 -44 c0 -31
3 -35 25 -35 14 0 25 -4 25 -10 0 -5 -11 -10 -25 -10 l-26 0 3 -92 c3 -85 5
-93 26 -104 20 -10 21 -12 7 -18 -26 -10 -60 -7 -73 6 -8 8 -12 47 -12 110 0
98 0 98 -25 98 -16 0 -25 -6 -25 -15 0 -22 -27 -30 -46 -14 -14 11 -18 10 -30
-6 -18 -24 -19 -156 -2 -173 9 -9 2 -12 -33 -12 l-44 0 3 105 c3 68 0 111 -7
119 -9 11 -4 15 25 18 30 3 38 1 42 -14 4 -18 5 -18 24 2 20 21 53 27 63 10 9
-14 50 15 63 45 18 38 42 32 42 -10z m-740 -35 c0 -6 9 -6 26 0 69 27 131 -6
142 -75 11 -66 3 -111 -25 -139 -22 -22 -35 -26 -84 -26 -58 0 -59 -1 -59 -27
0 -16 7 -40 14 -55 l15 -28 -52 0 c-40 0 -48 3 -39 12 15 15 17 318 2 318 -17
0 -11 18 8 23 31 8 52 7 52 -3z m379 -5 c16 -8 34 -28 40 -46 20 -57 18 -59
-64 -59 -54 0 -77 -4 -81 -13 -6 -17 13 -69 29 -79 22 -14 67 -8 87 12 11 11
22 20 25 20 13 0 3 -23 -20 -45 -31 -32 -100 -35 -138 -5 -49 39 -59 129 -22
187 28 42 92 55 144 28z m-3029 -15 c0 -5 -63 -163 -141 -352 -78 -189 -147
-361 -154 -384 -17 -54 0 -96 52 -123 l38 -20 -160 0 c-149 0 -157 1 -117 14
57 18 118 60 141 99 10 17 87 201 171 408 132 323 170 404 170 358z m2390 5
c-9 -11 -8 -19 7 -39 10 -14 20 -26 23 -26 11 0 37 55 33 68 -3 8 8 12 39 12
l43 0 -26 -23 c-15 -12 -36 -37 -48 -54 l-22 -33 32 -46 c18 -26 40 -55 51
-66 17 -17 17 -18 -32 -18 -40 0 -48 3 -44 15 4 8 -1 27 -11 41 l-16 25 -21
-26 c-11 -14 -17 -32 -14 -40 4 -12 -4 -15 -42 -15 -44 0 -45 1 -25 15 12 8
35 32 52 54 l31 39 -50 66 -49 66 51 0 c43 0 49 -2 38 -15z m470 -498 c0 -127
3 -167 15 -184 14 -20 13 -21 -22 -28 -21 -4 -38 -2 -42 4 -4 6 -12 7 -21 1
-25 -16 -76 -11 -103 10 -54 42 -60 158 -12 206 26 26 81 32 116 14 18 -10 19
-7 19 44 0 35 -5 60 -15 70 -13 13 -13 15 7 19 62 12 58 22 58 -156z m-370
121 c5 -13 32 -84 60 -158 29 -74 58 -145 66 -157 14 -23 14 -23 -46 -23 -56
0 -59 1 -49 18 7 12 9 33 5 55 l-7 37 -68 0 -69 0 -7 -36 c-5 -27 -2 -41 11
-55 17 -18 16 -19 -35 -19 l-52 0 15 28 c16 31 74 180 108 275 22 62 50 77 68
35z m581 -98 c12 -7 19 -21 19 -38 l0 -27 -23 28 c-28 35 -82 36 -82 2 0 -14
16 -28 58 -49 60 -30 75 -53 63 -101 -11 -45 -89 -68 -150 -45 -21 7 -26 16
-26 42 l0 33 31 -32 c33 -36 59 -41 83 -17 36 35 12 69 -67 94 -59 19 -72 56
-32 95 26 27 89 34 126 15z"/>
<path d="M1268 2839 c-8 -19 -52 -128 -98 -242 l-85 -209 35 -65 c46 -86 152
-225 259 -342 75 -82 347 -331 371 -339 9 -3 -6 36 -186 499 -57 146 -117 301
-133 345 -16 43 -56 148 -89 233 l-60 154 -14 -34z"/>
<path d="M3716 2288 c-18 -25 -21 -103 -6 -142 5 -15 20 -28 36 -32 59 -15 98
93 61 166 -17 35 -69 40 -91 8z"/>
<path d="M3990 2291 c-21 -40 -13 -51 35 -51 40 0 45 2 45 23 0 13 -5 28 -12
35 -18 18 -56 14 -68 -7z"/>
<path d="M3789 1823 c-24 -6 -39 -47 -39 -104 0 -40 5 -55 25 -74 51 -52 85
-22 85 76 0 56 -4 73 -20 89 -20 20 -23 21 -51 13z"/>
<path d="M3500 1890 c0 -3 -9 -30 -20 -60 -30 -83 -28 -90 25 -90 32 0 45 4
45 14 0 13 -49 146 -50 136z"/>
</g>
</svg>
